<svg xmlns="http://www.w3.org/2000/svg" viewBox="0 0 900 1100" role="img" aria-labelledby="title desc">
  <title id="title">Portrait placeholder</title>
  <desc id="desc">A soft editorial placeholder for a personal portfolio portrait.</desc>
  <defs>
    <linearGradient id="bg" x1="0" y1="0" x2="1" y2="1">
      <stop offset="0" stop-color="#fbfcff"/>
      <stop offset="0.48" stop-color="#eef2ff"/>
      <stop offset="1" stop-color="#dcfce7"/>
    </linearGradient>
    <linearGradient id="dress" x1="0" y1="0" x2="1" y2="1">
      <stop offset="0" stop-color="#4f46e5"/>
      <stop offset="1" stop-color="#0f766e"/>
    </linearGradient>
    <filter id="soft" x="-20%" y="-20%" width="140%" height="140%">
      <feDropShadow dx="0" dy="28" stdDeviation="28" flood-color="#101828" flood-opacity="0.18"/>
    </filter>
  </defs>
  <rect width="900" height="1100" fill="url(#bg)"/>
  <path d="M99 737C201 611 322 556 463 573c145 18 260 98 344 241v286H99Z" fill="#101828" opacity=".06"/>
  <circle cx="452" cy="365" r="232" fill="none" stroke="#4f46e5" stroke-opacity=".18" stroke-width="3"/>
  <circle cx="452" cy="365" r="166" fill="none" stroke="#0f766e" stroke-opacity=".16" stroke-width="2"/>
  <g opacity=".34" stroke="#4f46e5" stroke-width="2">
    <path d="M214 364h476"/>
    <path d="M452 127v474"/>
    <path d="M285 198l334 334"/>
    <path d="M619 198 285 532"/>
  </g>
  <g filter="url(#soft)">
    <path d="M474 258c88 13 149 92 136 184-12 85-83 153-168 155-91 1-169-70-176-162-8-104 99-195 208-177Z" fill="#f2bfaa"/>
    <path d="M259 391c-19-105 48-217 159-247 121-33 250 31 292 143 39 104 2 220-91 284-24-28-35-67-32-116 5-83-31-130-108-140-85-11-142 19-171 89-11 26-27 22-49-13Z" fill="#101828"/>
    <path d="M319 384c52-54 118-77 197-69 45 4 80 22 105 52 6-74-34-136-103-160-80-28-167 7-206 82-17 34-15 66 7 95Z" fill="#263044"/>
    <path d="M288 760c37-120 96-180 177-180 88 0 150 58 187 174l77 346H205Z" fill="url(#dress)"/>
    <path d="M365 614c35 47 78 70 130 68 44-2 80-21 109-58 8 32 6 70-6 113-50 36-105 39-164 9-43-35-66-79-69-132Z" fill="#f2bfaa"/>
    <path d="M327 723c93 70 192 78 297 22l30 110c-118 67-238 58-361-28Z" fill="#fff" opacity=".18"/>
  </g>
  <g fill="#101828" opacity=".62">
    <circle cx="381" cy="414" r="9"/>
    <circle cx="500" cy="414" r="9"/>
  </g>
  <path d="M395 493c35 20 70 20 105 0" fill="none" stroke="#9b4c55" stroke-width="9" stroke-linecap="round"/>
  <g fill="#4f46e5">
    <circle cx="177" cy="180" r="8"/>
    <circle cx="742" cy="242" r="7"/>
    <circle cx="694" cy="617" r="9"/>
    <circle cx="209" cy="622" r="6"/>
  </g>
  <g fill="#0f766e">
    <rect x="666" y="148" width="44" height="44" rx="8"/>
    <rect x="157" y="520" width="38" height="38" rx="8"/>
  </g>
</svg>
